<svg xmlns="http://www.w3.org/2000/svg" width="1130" height="565" viewBox="0 0 1130 565" font-family="DejaVu Sans, Arial, sans-serif"><defs><marker id="ah_data" viewBox="0 0 10 10" refX="9" refY="5" markerWidth="7" markerHeight="7" orient="auto-start-reverse"><path d="M1 1L9 5L1 9" fill="none" stroke="#444441" stroke-width="1.6"/></marker><marker id="ah_ctl" viewBox="0 0 10 10" refX="9" refY="5" markerWidth="7" markerHeight="7" orient="auto-start-reverse"><path d="M1 1L9 5L1 9" fill="none" stroke="#D85A30" stroke-width="1.6"/></marker><marker id="ah_clk" viewBox="0 0 10 10" refX="9" refY="5" markerWidth="7" markerHeight="7" orient="auto-start-reverse"><path d="M1 1L9 5L1 9" fill="none" stroke="#7F77DD" stroke-width="1.6"/></marker><marker id="ah_air" viewBox="0 0 10 10" refX="9" refY="5" markerWidth="7" markerHeight="7" orient="auto-start-reverse"><path d="M1 1L9 5L1 9" fill="none" stroke="#378ADD" stroke-width="1.6"/></marker><marker id="ah_exh" viewBox="0 0 10 10" refX="9" refY="5" markerWidth="7" markerHeight="7" orient="auto-start-reverse"><path d="M1 1L9 5L1 9" fill="none" stroke="#888780" stroke-width="1.6"/></marker></defs><rect width="1130" height="565" fill="#FFFFFF"/><text x="30" y="34" font-size="20" font-weight="600" fill="#2C2C2A">Генератор трёх фаз: один такт машины = 4 периода OSC</text><text x="30" y="114" font-size="13" fill="#2C2C2A" text-anchor="start" font-weight="600">OSC</text><text x="30" y="130" font-size="11" fill="#5F5E5A" text-anchor="start" font-weight="400">струйный генератор</text><path d="M190,120 L190,120 L190,96 L265.0,96 L265.0,120 L340,120 L340,96 L415.0,96 L415.0,120 L490,120 L490,96 L565.0,96 L565.0,120 L640,120 L640,96 L715.0,96 L715.0,120 L790,120 L790,96 L865.0,96 L865.0,120 L940,120 L940,96 L1015.0,96 L1015.0,120 L1090,120" fill="none" stroke="#185FA5" stroke-width="2"/><rect x="190" y="96" width="75.0" height="24" fill="#185FA5" fill-opacity="0.12"/><rect x="340" y="96" width="75.0" height="24" fill="#185FA5" fill-opacity="0.12"/><rect x="490" y="96" width="75.0" height="24" fill="#185FA5" fill-opacity="0.12"/><rect x="640" y="96" width="75.0" height="24" fill="#185FA5" fill-opacity="0.12"/><rect x="790" y="96" width="75.0" height="24" fill="#185FA5" fill-opacity="0.12"/><rect x="940" y="96" width="75.0" height="24" fill="#185FA5" fill-opacity="0.12"/><text x="30" y="164" font-size="13" fill="#2C2C2A" text-anchor="start" font-weight="600">osc_d2</text><text x="30" y="180" font-size="11" fill="#5F5E5A" text-anchor="start" font-weight="400">через 2 буфера</text><path d="M190,170 L206,170 L206,146 L281.0,146 L281.0,170 L356,170 L356,146 L431.0,146 L431.0,170 L506,170 L506,146 L581.0,146 L581.0,170 L656,170 L656,146 L731.0,146 L731.0,170 L806,170 L806,146 L881.0,146 L881.0,170 L956,170 L956,146 L1031.0,146 L1031.0,170 L1090,170" fill="none" stroke="#378ADD" stroke-width="2"/><rect x="206" y="146" width="75.0" height="24" fill="#378ADD" fill-opacity="0.12"/><rect x="356" y="146" width="75.0" height="24" fill="#378ADD" fill-opacity="0.12"/><rect x="506" y="146" width="75.0" height="24" fill="#378ADD" fill-opacity="0.12"/><rect x="656" y="146" width="75.0" height="24" fill="#378ADD" fill-opacity="0.12"/><rect x="806" y="146" width="75.0" height="24" fill="#378ADD" fill-opacity="0.12"/><rect x="956" y="146" width="75.0" height="24" fill="#378ADD" fill-opacity="0.12"/><text x="30" y="214" font-size="13" fill="#2C2C2A" text-anchor="start" font-weight="600">master_en</text><text x="30" y="230" font-size="11" fill="#5F5E5A" text-anchor="start" font-weight="400">OSC ∧ osc_d2</text><path d="M190,220 L206,220 L206,196 L265.0,196 L265.0,220 L356,220 L356,196 L415.0,196 L415.0,220 L506,220 L506,196 L565.0,196 L565.0,220 L656,220 L656,196 L715.0,196 L715.0,220 L806,220 L806,196 L865.0,196 L865.0,220 L956,220 L956,196 L1015.0,196 L1015.0,220 L1090,220" fill="none" stroke="#0F6E56" stroke-width="2"/><rect x="206" y="196" width="59.0" height="24" fill="#0F6E56" fill-opacity="0.12"/><rect x="356" y="196" width="59.0" height="24" fill="#0F6E56" fill-opacity="0.12"/><rect x="506" y="196" width="59.0" height="24" fill="#0F6E56" fill-opacity="0.12"/><rect x="656" y="196" width="59.0" height="24" fill="#0F6E56" fill-opacity="0.12"/><rect x="806" y="196" width="59.0" height="24" fill="#0F6E56" fill-opacity="0.12"/><rect x="956" y="196" width="59.0" height="24" fill="#0F6E56" fill-opacity="0.12"/><text x="30" y="264" font-size="13" fill="#2C2C2A" text-anchor="start" font-weight="600">slave_en</text><text x="30" y="280" font-size="11" fill="#5F5E5A" text-anchor="start" font-weight="400">OSC ∨ osc_d2 = 0</text><path d="M190,270 L281.0,270 L281.0,246 L340,246 L340,270 L431.0,270 L431.0,246 L490,246 L490,270 L581.0,270 L581.0,246 L640,246 L640,270 L731.0,270 L731.0,246 L790,246 L790,270 L881.0,270 L881.0,246 L940,246 L940,270 L1031.0,270 L1031.0,246 L1090,246 L1090,270 L1090,270" fill="none" stroke="#993C1D" stroke-width="2"/><rect x="281.0" y="246" width="59.0" height="24" fill="#993C1D" fill-opacity="0.12"/><rect x="431.0" y="246" width="59.0" height="24" fill="#993C1D" fill-opacity="0.12"/><rect x="581.0" y="246" width="59.0" height="24" fill="#993C1D" fill-opacity="0.12"/><rect x="731.0" y="246" width="59.0" height="24" fill="#993C1D" fill-opacity="0.12"/><rect x="881.0" y="246" width="59.0" height="24" fill="#993C1D" fill-opacity="0.12"/><rect x="1031.0" y="246" width="59.0" height="24" fill="#993C1D" fill-opacity="0.12"/><text x="30" y="314" font-size="13" fill="#2C2C2A" text-anchor="start" font-weight="600">A B (счётчик)</text><polygon points="281.0,306 287.0,296 425.0,296 431.0,306 425.0,316 287.0,316" fill="#EEEDFE" stroke="#7F77DD"/><text x="356.0" y="310" font-size="12" fill="#26215C" text-anchor="middle" font-weight="400">10</text><polygon points="431.0,306 437.0,296 575.0,296 581.0,306 575.0,316 437.0,316" fill="#EEEDFE" stroke="#7F77DD"/><text x="506.0" y="310" font-size="12" fill="#26215C" text-anchor="middle" font-weight="400">11</text><polygon points="581.0,306 587.0,296 725.0,296 731.0,306 725.0,316 587.0,316" fill="#EEEDFE" stroke="#7F77DD"/><text x="656.0" y="310" font-size="12" fill="#26215C" text-anchor="middle" font-weight="400">01</text><polygon points="731.0,306 737.0,296 875.0,296 881.0,306 875.0,316 737.0,316" fill="#EEEDFE" stroke="#7F77DD"/><text x="806.0" y="310" font-size="12" fill="#26215C" text-anchor="middle" font-weight="400">00</text><polygon points="881.0,306 887.0,296 1025.0,296 1031.0,306 1025.0,316 887.0,316" fill="#EEEDFE" stroke="#7F77DD"/><text x="956.0" y="310" font-size="12" fill="#26215C" text-anchor="middle" font-weight="400">10</text><polygon points="1031.0,306 1037.0,296 1084,296 1090,306 1084,316 1037.0,316" fill="#EEEDFE" stroke="#7F77DD"/><text x="1060.5" y="310" font-size="12" fill="#26215C" text-anchor="middle" font-weight="400">11</text><polygon points="190,296 281.0,296 287.0,306 281.0,316 190,316" fill="#F1EFE8" stroke="#B4B2A9"/><text x="227.5" y="310" font-size="12" fill="#5F5E5A" text-anchor="middle" font-weight="400">00</text><text x="30" y="364" font-size="13" fill="#2C2C2A" text-anchor="start" font-weight="600">Ф1</text><text x="30" y="380" font-size="11" fill="#5F5E5A" text-anchor="start" font-weight="400">сброс ведущих</text><path d="M190,370 L356,370 L356,346 L415.0,346 L415.0,370 L956,370 L956,346 L1015.0,346 L1015.0,370 L1090,370" fill="none" stroke="#D85A30" stroke-width="2"/><rect x="356" y="346" width="59.0" height="24" fill="#D85A30" fill-opacity="0.12"/><rect x="956" y="346" width="59.0" height="24" fill="#D85A30" fill-opacity="0.12"/><text x="30" y="414" font-size="13" fill="#2C2C2A" text-anchor="start" font-weight="600">Ф2</text><text x="30" y="430" font-size="11" fill="#5F5E5A" text-anchor="start" font-weight="400">запись ведущих</text><path d="M190,420 L506,420 L506,396 L565.0,396 L565.0,420 L1090,420" fill="none" stroke="#BA7517" stroke-width="2"/><rect x="506" y="396" width="59.0" height="24" fill="#BA7517" fill-opacity="0.12"/><text x="30" y="464" font-size="13" fill="#2C2C2A" text-anchor="start" font-weight="600">Ф3</text><text x="30" y="480" font-size="11" fill="#5F5E5A" text-anchor="start" font-weight="400">перенос в ведомые</text><path d="M190,470 L656,470 L656,446 L715.0,446 L715.0,470 L1090,470" fill="none" stroke="#534AB7" stroke-width="2"/><rect x="656" y="446" width="59.0" height="24" fill="#534AB7" fill-opacity="0.12"/><path d="M340,500 L340,512 L940,512 L940,500" fill="none" stroke="#2C2C2A" stroke-width="1.5"/><text x="640" y="530" font-size="13" fill="#2C2C2A" text-anchor="middle" font-weight="400">такт машины: Ф1, Ф2, Ф3 и пауза; ведущие и ведомые ячейки никогда не открыты одновременно</text><line x1="190" y1="80" x2="190" y2="496" stroke="#D3D1C7" stroke-dasharray="2 4"/><line x1="340" y1="80" x2="340" y2="496" stroke="#D3D1C7" stroke-dasharray="2 4"/><line x1="490" y1="80" x2="490" y2="496" stroke="#D3D1C7" stroke-dasharray="2 4"/><line x1="640" y1="80" x2="640" y2="496" stroke="#D3D1C7" stroke-dasharray="2 4"/><line x1="790" y1="80" x2="790" y2="496" stroke="#D3D1C7" stroke-dasharray="2 4"/><line x1="940" y1="80" x2="940" y2="496" stroke="#D3D1C7" stroke-dasharray="2 4"/><line x1="1090" y1="80" x2="1090" y2="496" stroke="#D3D1C7" stroke-dasharray="2 4"/></svg>