<svg xmlns="http://www.w3.org/2000/svg" width="1100" height="470" viewBox="0 0 1100 470" font-family="DejaVu Sans, Arial, sans-serif"><defs><marker id="ah_data" viewBox="0 0 10 10" refX="9" refY="5" markerWidth="7" markerHeight="7" orient="auto-start-reverse"><path d="M1 1L9 5L1 9" fill="none" stroke="#444441" stroke-width="1.6"/></marker><marker id="ah_ctl" viewBox="0 0 10 10" refX="9" refY="5" markerWidth="7" markerHeight="7" orient="auto-start-reverse"><path d="M1 1L9 5L1 9" fill="none" stroke="#D85A30" stroke-width="1.6"/></marker><marker id="ah_clk" viewBox="0 0 10 10" refX="9" refY="5" markerWidth="7" markerHeight="7" orient="auto-start-reverse"><path d="M1 1L9 5L1 9" fill="none" stroke="#7F77DD" stroke-width="1.6"/></marker><marker id="ah_air" viewBox="0 0 10 10" refX="9" refY="5" markerWidth="7" markerHeight="7" orient="auto-start-reverse"><path d="M1 1L9 5L1 9" fill="none" stroke="#378ADD" stroke-width="1.6"/></marker><marker id="ah_exh" viewBox="0 0 10 10" refX="9" refY="5" markerWidth="7" markerHeight="7" orient="auto-start-reverse"><path d="M1 1L9 5L1 9" fill="none" stroke="#888780" stroke-width="1.6"/></marker></defs><rect width="1100" height="470" fill="#FFFFFF"/><text x="30" y="34" font-size="20" font-weight="600" fill="#2C2C2A">Нейрон «не более одного несовпадения»: цепочка на 2И и 2ИЛИ</text><text x="30" y="64" font-size="13" fill="#5F5E5A" text-anchor="start" font-weight="400">Рельс A — «пока всё совпало»: Aₙ = Aₙ₋₁ ∧ xₙ.   Рельс B — «ошибок не больше одной»: Bₙ = (Bₙ₋₁ ∧ xₙ) ∨ Aₙ₋₁.   Элементов: 3k − 5.</text><text x="30" y="84" font-size="13" fill="#5F5E5A" text-anchor="start" font-weight="400">xᵢ — прямой или инверсный выход ключа трубочки, в зависимости от веса +1 / −1.</text><text x="30" y="130" font-size="13" fill="#0F6E56" text-anchor="start" font-weight="600">рельс A</text><text x="30" y="405" font-size="13" fill="#993C1D" text-anchor="start" font-weight="600">рельс B</text><path d="M30,160 L148,160" fill="none" stroke="#444441" stroke-width="1.6"  marker-end="url(#ah_data)"/><text x="34" y="154" font-size="12" fill="#444441" text-anchor="start" font-weight="400">x₁</text><path d="M30,180 L148,180" fill="none" stroke="#444441" stroke-width="1.6"  marker-end="url(#ah_data)"/><text x="34" y="196" font-size="12" fill="#444441" text-anchor="start" font-weight="400">x₂</text><path d="M30,320 L148,320" fill="none" stroke="#444441" stroke-width="1.6"  marker-end="url(#ah_data)"/><text x="34" y="314" font-size="12" fill="#444441" text-anchor="start" font-weight="400">x₁</text><path d="M30,340 L148,340" fill="none" stroke="#444441" stroke-width="1.6"  marker-end="url(#ah_data)"/><text x="34" y="356" font-size="12" fill="#444441" text-anchor="start" font-weight="400">x₂</text><rect x="150" y="140" width="120" height="60" rx="6" fill="#E1F5EE" stroke="#1D9E75" stroke-width="1.5"/><text x="160" y="160" font-size="15" fill="#04342C" text-anchor="start" font-weight="600">И</text><text x="160" y="178" font-size="12" fill="#0F6E56" text-anchor="start" font-weight="400">A₂</text><rect x="150" y="300" width="120" height="60" rx="6" fill="#FAECE7" stroke="#D85A30" stroke-width="1.5"/><text x="160" y="320" font-size="15" fill="#4A1B0C" text-anchor="start" font-weight="600">ИЛИ</text><text x="160" y="338" font-size="12" fill="#993C1D" text-anchor="start" font-weight="400">B₂</text><path d="M270,170 L418,170" fill="none" stroke="#444441" stroke-width="1.6"  marker-end="url(#ah_data)"/><path d="M270,330 L418,330" fill="none" stroke="#444441" stroke-width="1.6"  marker-end="url(#ah_data)"/><rect x="420" y="140" width="120" height="60" rx="6" fill="#E1F5EE" stroke="#1D9E75" stroke-width="1.5"/><text x="430" y="160" font-size="15" fill="#04342C" text-anchor="start" font-weight="600">И</text><text x="430" y="178" font-size="12" fill="#0F6E56" text-anchor="start" font-weight="400">A₃ = A₂·x₃</text><rect x="420" y="300" width="120" height="60" rx="6" fill="#FAECE7" stroke="#D85A30" stroke-width="1.5"/><text x="430" y="320" font-size="15" fill="#4A1B0C" text-anchor="start" font-weight="600">И</text><text x="430" y="338" font-size="12" fill="#993C1D" text-anchor="start" font-weight="400">B₂·x₃</text><path d="M480,100 L480,138" fill="none" stroke="#444441" stroke-width="1.6"  marker-end="url(#ah_data)"/><text x="486" y="118" font-size="12" fill="#444441" text-anchor="start" font-weight="400">x₃</text><path d="M480,405 L480,362" fill="none" stroke="#444441" stroke-width="1.6"  marker-end="url(#ah_data)"/><text x="486" y="400" font-size="12" fill="#444441" text-anchor="start" font-weight="400">x₃</text><path d="M320,170 L320,250 L620,250 L620,298" fill="none" stroke="#444441" stroke-width="1.6"  marker-end="url(#ah_data)"/><text x="326" y="244" font-size="12" fill="#444441" text-anchor="start" font-weight="400">A₂</text><path d="M540,330 L558,330" fill="none" stroke="#444441" stroke-width="1.6"  marker-end="url(#ah_data)"/><rect x="560" y="300" width="120" height="60" rx="6" fill="#FAECE7" stroke="#D85A30" stroke-width="1.5"/><text x="570" y="320" font-size="15" fill="#4A1B0C" text-anchor="start" font-weight="600">ИЛИ</text><text x="570" y="338" font-size="12" fill="#993C1D" text-anchor="start" font-weight="400">B₃</text><path d="M680,330 L698,330" fill="none" stroke="#444441" stroke-width="1.6"  marker-end="url(#ah_data)"/><rect x="700" y="300" width="120" height="60" rx="6" fill="#FAECE7" stroke="#D85A30" stroke-width="1.5"/><text x="710" y="320" font-size="15" fill="#4A1B0C" text-anchor="start" font-weight="600">И</text><text x="710" y="338" font-size="12" fill="#993C1D" text-anchor="start" font-weight="400">B₃·x₄</text><path d="M760,405 L760,362" fill="none" stroke="#444441" stroke-width="1.6"  marker-end="url(#ah_data)"/><text x="766" y="400" font-size="12" fill="#444441" text-anchor="start" font-weight="400">x₄</text><path d="M540,170 L900,170 L900,298" fill="none" stroke="#444441" stroke-width="1.6"  marker-end="url(#ah_data)"/><text x="846" y="164" font-size="12" fill="#444441" text-anchor="start" font-weight="400">A₃</text><path d="M820,330 L838,330" fill="none" stroke="#444441" stroke-width="1.6"  marker-end="url(#ah_data)"/><rect x="840" y="300" width="120" height="60" rx="6" fill="#FAECE7" stroke="#D85A30" stroke-width="1.5"/><text x="850" y="320" font-size="15" fill="#4A1B0C" text-anchor="start" font-weight="600">ИЛИ</text><text x="850" y="338" font-size="12" fill="#993C1D" text-anchor="start" font-weight="400">Y = B₄</text><path d="M960,330 L1060,330" fill="none" stroke="#444441" stroke-width="1.6"  marker-end="url(#ah_data)"/><text x="975" y="322" font-size="12" fill="#444441" text-anchor="start" font-weight="400">нейрон</text><text x="30" y="450" font-size="12" fill="#5F5E5A" text-anchor="start" font-weight="400">Последний элемент рельса A (A₄) не нужен. Нейрон на k пикселей: 2 + 3·(k − 2) − 1 = 3k − 5 элементов; k = 5…8 → 10…19.</text></svg>