solid patch_3_0
 facet normal 0.8699894547462463 -0.4930703341960907 0.0
  outer loop
   vertex 0.033226299285888675 0.02441920280456543 0.0
   vertex 0.03477257537841797 0.027147502899169923 0.0
   vertex 0.03477257537841797 0.027147502899169923 0.002
  endloop
 endfacet
 facet normal 0.8699894547462463 -0.4930703341960907 0.0
  outer loop
   vertex 0.033226299285888675 0.02441920280456543 0.0
   vertex 0.03477257537841797 0.027147502899169923 0.002
   vertex 0.033226299285888675 0.02441920280456543 0.002
  endloop
 endfacet
 facet normal 0.0 -1.0 0.0
  outer loop
   vertex 0.042285144805908205 0.0 0.0
   vertex 0.0452851448059082 0.0 0.0
   vertex 0.0452851448059082 0.0 0.002
  endloop
 endfacet
 facet normal 0.0 -1.0 0.0
  outer loop
   vertex 0.042285144805908205 0.0 0.0
   vertex 0.0452851448059082 0.0 0.002
   vertex 0.042285144805908205 0.0 0.002
  endloop
 endfacet
 facet normal 0.0 -1.0 0.0
  outer loop
   vertex 0.004285144805908203 0.0 0.0
   vertex 0.007285144805908203 0.0 0.0
   vertex 0.004285144805908203 0.0 0.002
  endloop
 endfacet
 facet normal 0.0 -1.0 0.0
  outer loop
   vertex 0.004285144805908203 0.0 0.002
   vertex 0.007285144805908203 0.0 0.0
   vertex 0.007285144805908203 0.0 0.002
  endloop
 endfacet
 facet normal -0.796067476272583 -0.6052078008651733 0.0
  outer loop
   vertex 0.010198200225830078 0.025779211044311523 0.0
   vertex 0.012603655815124511 0.02261516571044922 0.0
   vertex 0.010198200225830078 0.025779211044311523 0.002
  endloop
 endfacet
 facet normal -0.796067476272583 -0.6052078008651733 0.0
  outer loop
   vertex 0.010198200225830078 0.025779211044311523 0.002
   vertex 0.012603655815124511 0.02261516571044922 0.0
   vertex 0.012603655815124511 0.02261516571044922 0.002
  endloop
 endfacet
endsolid patch_3_0
